<svg width="22" height="22" viewBox="0 0 22 22" fill="none" xmlns="http://www.w3.org/2000/svg">
<path d="M11 15.4444H12.1111C12.8519 15.4444 14.3333 15 14.3333 13.2222C14.3333 11.4444 12.8519 11 12.1111 11H9.88889C9.14811 11 7.66667 10.5556 7.66667 8.77778C7.66667 7 9.14811 6.55556 9.88889 6.55556H11M11 15.4444H7.66667M11 15.4444V17.6667M11 6.55556H14.3333M11 6.55556V4.33333M21 11C21 16.5229 16.5229 21 11 21C5.47716 21 1 16.5229 1 11C1 5.47716 5.47716 1 11 1C16.5229 1 21 5.47716 21 11Z" stroke="white" stroke-width="1.5" stroke-linecap="round" stroke-linejoin="round"/>
</svg>
