<svg width="17" height="20" viewBox="0 0 17 20" fill="none" xmlns="http://www.w3.org/2000/svg">
<path d="M0 0.687917C0 0.50547 0.0724769 0.330496 0.201486 0.201486C0.330496 0.0724767 0.50547 0 0.687917 0H15.8221C16.0045 0 16.1795 0.0724767 16.3085 0.201486C16.4375 0.330496 16.51 0.50547 16.51 0.687917C16.51 0.870364 16.4375 1.04534 16.3085 1.17435C16.1795 1.30336 16.0045 1.37583 15.8221 1.37583H14.4463V2.75167C14.4465 3.91979 14.1163 5.06417 13.4938 6.0526C12.8713 7.04103 11.9819 7.83318 10.9282 8.33755C10.5293 8.52879 10.3188 8.85624 10.3188 9.14929V10.1124C10.3188 10.4054 10.5306 10.7329 10.9282 10.9241C11.9819 11.4285 12.8713 12.2206 13.4938 13.2091C14.1163 14.1975 14.4465 15.3419 14.4463 16.51V17.8858H15.8221C16.0045 17.8858 16.1795 17.9583 16.3085 18.0873C16.4375 18.2163 16.51 18.3913 16.51 18.5738C16.51 18.7562 16.4375 18.9312 16.3085 19.0602C16.1795 19.1892 16.0045 19.2617 15.8221 19.2617H0.687917C0.50547 19.2617 0.330496 19.1892 0.201486 19.0602C0.0724769 18.9312 0 18.7562 0 18.5738C0 18.3913 0.0724769 18.2163 0.201486 18.0873C0.330496 17.9583 0.50547 17.8858 0.687917 17.8858H2.06375V16.51C2.06347 15.3419 2.39365 14.1975 3.01617 13.2091C3.63869 12.2206 4.52813 11.4285 5.58176 10.9241C5.98075 10.7329 6.19125 10.4054 6.19125 10.1124V9.14929C6.19125 8.85624 5.97937 8.52879 5.58176 8.33755C4.52813 7.83318 3.63869 7.04103 3.01617 6.0526C2.39365 5.06417 2.06347 3.91979 2.06375 2.75167V1.37583H0.687917C0.50547 1.37583 0.330496 1.30336 0.201486 1.17435C0.0724769 1.04534 0 0.870364 0 0.687917ZM3.43958 1.37583V2.75167C3.43933 3.66029 3.69616 4.55045 4.1804 5.31929C4.66464 6.08813 5.35652 6.70428 6.17612 7.09655C6.90944 7.44876 7.56708 8.18483 7.56708 9.14792V10.1138C7.56708 10.1138 7.81473 10.3188 8.255 10.3188C8.69527 10.3188 8.94292 10.1124 8.94292 10.1124V9.14929C8.94292 8.18483 9.60056 7.44876 10.3339 7.09655C11.1535 6.70428 11.8454 6.08813 12.3296 5.31929C12.8138 4.55045 13.0707 3.66029 13.0704 2.75167V1.37583H3.43958Z" fill="white"/>
</svg>
