<svg width="60" height="60" viewBox="0 0 60 60" fill="none" xmlns="http://www.w3.org/2000/svg">
<path d="M34.0002 59.7549C14.4991 62.2551 -2.25191 45.7541 0.248239 26.0029C1.99834 12.7521 12.749 1.75149 25.9998 0.251404C45.5009 -2.24874 62.2519 14.2522 59.7518 34.0034C58.0017 47.2542 47.251 58.0048 34.0002 59.7549ZM34.2503 5.2517C17.2492 2.50154 2.49837 17.2524 5.24853 34.2534C6.99864 44.504 15.2491 53.0045 25.7497 54.7546C42.7508 57.5048 57.5016 42.7539 54.7515 25.7529C53.0014 15.5023 44.5009 7.0018 34.2503 5.2517Z" fill="white"/>
<path d="M13.9973 10.502L49.4994 45.754L45.9992 49.5043L10.4971 14.0022" fill="white"/>
</svg>
