<svg width="20" height="20" viewBox="0 0 20 20" fill="none" xmlns="http://www.w3.org/2000/svg">
<path d="M12.597 0C11.4274 0.00104871 10.2747 0.278687 9.23291 0.810247C8.19112 1.34181 7.28981 2.11222 6.60258 3.05857C5.91535 4.00493 5.46167 5.1004 5.27859 6.25555C5.09552 7.4107 5.18823 8.59277 5.54917 9.70525L0.216743 15.0367C0.147952 15.1056 0.0934045 15.1874 0.0562152 15.2773C0.0190258 15.3673 -7.63125e-05 15.4637 2.29116e-07 15.561V19.266C2.29116e-07 19.4625 0.0780696 19.651 0.217034 19.79C0.355999 19.9289 0.544475 20.007 0.741 20.007H4.446C4.64253 20.007 4.831 19.9289 4.96997 19.79C5.10893 19.651 5.187 19.4625 5.187 19.266V17.784H6.669C6.86553 17.784 7.054 17.7059 7.19297 17.567C7.33193 17.428 7.41 17.2395 7.41 17.043V15.561H8.892C8.98934 15.5611 9.08574 15.542 9.17569 15.5048C9.26565 15.4676 9.34739 15.4131 9.41626 15.3443L10.3018 14.4578C11.3202 14.7885 12.3982 14.8945 13.4615 14.7686C14.5249 14.6426 15.5483 14.2877 16.4613 13.7283C17.3743 13.1689 18.1552 12.4183 18.7503 11.5281C19.3454 10.6379 19.7405 9.62934 19.9083 8.57182C20.0762 7.5143 20.0129 6.43295 19.7228 5.40224C19.4327 4.37153 18.9226 3.41594 18.2277 2.60127C17.5329 1.7866 16.6697 1.1322 15.6976 0.683137C14.7256 0.234074 13.6678 0.00101212 12.597 0ZM12.597 13.338C11.8469 13.3393 11.1034 13.1975 10.4064 12.9203C10.2701 12.8611 10.1191 12.8443 9.97307 12.872C9.82705 12.8998 9.69275 12.9708 9.58762 13.0759L8.58541 14.079H6.669C6.47248 14.079 6.284 14.1571 6.14503 14.296C6.00607 14.435 5.928 14.6235 5.928 14.82V16.302H4.446C4.24948 16.302 4.061 16.3801 3.92203 16.519C3.78307 16.658 3.705 16.8465 3.705 17.043V18.525H1.482V15.8676L6.93113 10.4194C7.0362 10.3143 7.10722 10.18 7.13497 10.0339C7.16272 9.88792 7.14591 9.73693 7.08674 9.60058C6.61814 8.42225 6.53975 7.12471 6.86307 5.89853C7.1864 4.67235 7.89441 3.58217 8.8831 2.78811C9.87179 1.99405 11.0891 1.53795 12.3561 1.48682C13.6232 1.43569 14.8732 1.79221 15.9227 2.50403C16.9722 3.21584 17.7657 4.24543 18.1868 5.44156C18.6079 6.6377 18.6343 7.93734 18.2622 9.1496C17.89 10.3619 17.139 11.4228 16.1193 12.1767C15.0996 12.9306 13.8651 13.3376 12.597 13.338ZM15.561 5.5575C15.561 5.77733 15.4958 5.99223 15.3737 6.17502C15.2515 6.3578 15.078 6.50027 14.8749 6.58439C14.6718 6.66852 14.4483 6.69053 14.2327 6.64764C14.017 6.60476 13.819 6.4989 13.6636 6.34345C13.5081 6.188 13.4022 5.98995 13.3594 5.77434C13.3165 5.55873 13.3385 5.33525 13.4226 5.13215C13.5067 4.92905 13.6492 4.75546 13.832 4.63332C14.0148 4.51119 14.2297 4.446 14.4495 4.446C14.7443 4.446 15.027 4.5631 15.2355 4.77155C15.4439 4.98 15.561 5.26271 15.561 5.5575Z" fill="white"/>
</svg>
