<svg width="17" height="20" viewBox="0 0 17 20" fill="none" xmlns="http://www.w3.org/2000/svg">
<path d="M0 0.708333C0 0.520472 0.0746279 0.340304 0.207466 0.207466C0.340304 0.0746277 0.520472 0 0.708333 0H16.2917C16.4795 0 16.6597 0.0746277 16.7925 0.207466C16.9254 0.340304 17 0.520472 17 0.708333C17 0.896195 16.9254 1.07636 16.7925 1.2092C16.6597 1.34204 16.4795 1.41667 16.2917 1.41667H14.875V2.83333C14.8753 4.03613 14.5353 5.21447 13.8943 6.23223C13.2533 7.25 12.3375 8.06566 11.2526 8.585C10.8417 8.78192 10.625 9.11908 10.625 9.42083V10.4125C10.625 10.7143 10.8432 11.0514 11.2526 11.2483C12.3375 11.7677 13.2533 12.5833 13.8943 13.6011C14.5353 14.6189 14.8753 15.7972 14.875 17V18.4167H16.2917C16.4795 18.4167 16.6597 18.4913 16.7925 18.6241C16.9254 18.757 17 18.9371 17 19.125C17 19.3129 16.9254 19.493 16.7925 19.6259C16.6597 19.7587 16.4795 19.8333 16.2917 19.8333H0.708333C0.520472 19.8333 0.340304 19.7587 0.207466 19.6259C0.0746279 19.493 0 19.3129 0 19.125C0 18.9371 0.0746279 18.757 0.207466 18.6241C0.340304 18.4913 0.520472 18.4167 0.708333 18.4167H2.125V17C2.12471 15.7972 2.4647 14.6189 3.10569 13.6011C3.74668 12.5833 4.66252 11.7677 5.74742 11.2483C6.15825 11.0514 6.375 10.7143 6.375 10.4125V9.42083C6.375 9.11908 6.15683 8.78192 5.74742 8.585C4.66252 8.06566 3.74668 7.25 3.10569 6.23223C2.4647 5.21447 2.12471 4.03613 2.125 2.83333V1.41667H0.708333C0.520472 1.41667 0.340304 1.34204 0.207466 1.2092C0.0746279 1.07636 0 0.896195 0 0.708333ZM3.54167 1.41667V2.83333C3.54141 3.76893 3.80586 4.6855 4.30447 5.47716C4.80308 6.26882 5.5155 6.90326 6.35942 7.30717C7.1145 7.66983 7.79167 8.42775 7.79167 9.41942V10.4139C7.79167 10.4139 8.04667 10.625 8.5 10.625C8.95333 10.625 9.20833 10.4125 9.20833 10.4125V9.42083C9.20833 8.42775 9.8855 7.66983 10.6406 7.30717C11.4845 6.90326 12.1969 6.26882 12.6955 5.47716C13.1941 4.6855 13.4586 3.76893 13.4583 2.83333V1.41667H3.54167Z" fill="white"/>
</svg>
