<svg width="14" height="14" viewBox="0 0 14 14" fill="none" xmlns="http://www.w3.org/2000/svg">
<path d="M7 0C4.58369 0 2.625 1.56695 2.625 3.5C2.625 5.43305 4.58369 7 7 7C9.41631 7 11.375 5.43305 11.375 3.5C11.375 1.56695 9.41631 0 7 0ZM3.71875 3.5C3.71875 2.80381 4.06445 2.13613 4.67981 1.64384C5.29516 1.15156 6.12976 0.875 7 0.875C7.87024 0.875 8.70484 1.15156 9.32019 1.64384C9.93555 2.13613 10.2812 2.80381 10.2812 3.5C10.2812 4.19619 9.93555 4.86387 9.32019 5.35616C8.70484 5.84844 7.87024 6.125 7 6.125C6.12976 6.125 5.29516 5.84844 4.67981 5.35616C4.06445 4.86387 3.71875 4.19619 3.71875 3.5ZM1.85938 8.4C1.36631 8.4 0.893441 8.55667 0.544753 8.83555C0.196065 9.11444 0.000116014 9.4927 0 9.88715V10.15C0 11.4642 0.849625 12.4485 2.1525 13.083C3.43438 13.7071 5.15637 14 7 14C8.84363 14 10.5656 13.7071 11.8475 13.083C13.1504 12.4485 14 11.4642 14 10.15V9.88715C14 9.69182 13.9519 9.49841 13.8585 9.31796C13.765 9.13751 13.628 8.97355 13.4554 8.83545C13.2827 8.69735 13.0777 8.58782 12.8521 8.5131C12.6266 8.43839 12.3848 8.39995 12.1406 8.4H1.85938ZM1.09375 9.88715C1.09387 9.72477 1.17458 9.56906 1.31815 9.45427C1.46172 9.33948 1.65639 9.275 1.85938 9.275H12.1406C12.5637 9.275 12.9062 9.54905 12.9062 9.88715V10.15C12.9062 11.1104 12.3112 11.8328 11.2787 12.3357C10.2244 12.8492 8.72025 13.125 7 13.125C5.27975 13.125 3.77563 12.8492 2.72125 12.3357C1.68875 11.8328 1.09375 11.1108 1.09375 10.15V9.88715Z" fill="#152B51"/>
</svg>
