<svg width="26" height="26" viewBox="0 0 26 26" fill="none" xmlns="http://www.w3.org/2000/svg">
<path fill-rule="evenodd" clip-rule="evenodd" d="M10.0332 11.5424L11.0286 10.5081L7.48265 6.96338L7.36489 6.79829L5.69571 3.3531L2.64141 1.87329L1.37891 3.1358L2.88299 6.21316L6.30147 7.85928L6.46779 7.97703L10.0332 11.5424ZM16.4695 14.0771L13.556 16.9384L21.0947 24.477C21.2085 24.5908 21.3629 24.6548 21.5238 24.6548C21.6847 24.6548 21.8391 24.5908 21.9529 24.477L23.9814 22.4473C24.0952 22.3335 24.1592 22.1791 24.1592 22.0182C24.1592 21.8572 24.0952 21.7029 23.9814 21.5891L16.4695 14.0771Z" stroke="#737791" stroke-width="1.5"/>
<path fill-rule="evenodd" clip-rule="evenodd" d="M1.17265 21.2395C0.942247 20.3795 0.942453 19.474 1.17325 18.6141C1.40405 17.7542 1.85729 16.9702 2.48736 16.3412C3.11667 15.7111 3.9008 15.2579 4.76089 15.0271C5.62097 14.7963 6.52667 14.7961 7.38686 15.0265L15.0287 7.38467C14.7979 6.52459 14.7978 5.6189 15.0284 4.75877C15.259 3.89864 15.7121 3.11446 16.3422 2.48517C16.9716 1.85573 17.7557 1.40308 18.6155 1.17273C19.4753 0.942371 20.3807 0.942426 21.2405 1.17289L19.0687 3.34343L18.9898 6.91244L22.5272 6.80319L24.7694 4.56223C25.0401 5.42876 25.0731 6.35208 24.865 7.23573C24.657 8.11938 24.2154 8.93095 23.5865 9.58564C22.9576 10.2403 22.1644 10.7141 21.2899 10.9576C20.4153 11.201 19.4914 11.2051 18.6147 10.9695L10.9704 18.6137C11.2061 19.4904 11.202 20.4143 10.9586 21.2889C10.7151 22.1635 10.2413 22.9566 9.58662 23.5855C8.93193 24.2144 8.12036 24.656 7.23671 24.8641C6.35306 25.0721 5.42974 25.0391 4.56322 24.7684L6.80538 22.5263L6.91464 18.9888L3.34562 19.0677L1.17265 21.2395Z" stroke="#737791" stroke-width="1.5" stroke-linecap="round" stroke-linejoin="round"/>
</svg>
