<svg width="28" height="24" viewBox="0 0 28 24" fill="none" xmlns="http://www.w3.org/2000/svg">
<path d="M1.27273 23.0208H11.4545C11.7921 23.0208 12.1158 22.8868 12.3545 22.6481C12.5932 22.4094 12.7273 22.0857 12.7273 21.7481C12.7273 21.4106 12.5932 21.0868 12.3545 20.8482C12.1158 20.6095 11.7921 20.4754 11.4545 20.4754H2.63582C2.94465 18.3561 4.00545 16.4185 5.6245 15.0166C7.24355 13.6146 9.31285 12.8417 11.4545 12.839C12.9532 12.852 14.4091 12.3403 15.57 11.3926C16.7309 10.4448 17.5237 9.12074 17.8109 7.64985C18.0981 6.17896 17.8616 4.65395 17.1425 3.33911C16.4233 2.02426 15.2668 1.00246 13.8734 0.450781C12.4799 -0.100897 10.9374 -0.147677 9.51311 0.318547C8.08882 0.78477 6.87252 1.73461 6.07501 3.00346C5.27751 4.27231 4.94906 5.78019 5.14659 7.26578C5.34412 8.75137 6.05519 10.121 7.15655 11.1374C5.04408 11.9944 3.23498 13.4615 1.96026 15.3515C0.685548 17.2414 0.00307536 19.4685 0 21.7481C0 22.0857 0.13409 22.4094 0.372773 22.6481C0.611456 22.8868 0.935179 23.0208 1.27273 23.0208ZM11.4545 2.65721C12.2097 2.65721 12.9479 2.88115 13.5758 3.30069C14.2037 3.72024 14.6931 4.31656 14.9821 5.01424C15.2711 5.71192 15.3467 6.47963 15.1994 7.22029C15.052 7.96094 14.6884 8.64128 14.1544 9.17526C13.6204 9.70924 12.9401 10.0729 12.1994 10.2202C11.4588 10.3675 10.6911 10.2919 9.99339 10.0029C9.29571 9.71395 8.69939 9.22456 8.27984 8.59666C7.8603 7.96877 7.63636 7.23056 7.63636 6.4754C7.63636 5.46275 8.03864 4.49158 8.75468 3.77553C9.47073 3.05949 10.4419 2.65721 11.4545 2.65721ZM28 16.6572C28 16.9948 27.8659 17.3185 27.6272 17.5572C27.3885 17.7959 27.0648 17.9299 26.7273 17.9299H22.9091V21.7481C22.9091 22.0857 22.775 22.4094 22.5363 22.6481C22.2976 22.8868 21.9739 23.0208 21.6364 23.0208C21.2988 23.0208 20.9751 22.8868 20.7364 22.6481C20.4977 22.4094 20.3636 22.0857 20.3636 21.7481V17.9299H16.5455C16.2079 17.9299 15.8842 17.7959 15.6455 17.5572C15.4068 17.3185 15.2727 16.9948 15.2727 16.6572C15.2727 16.3197 15.4068 15.9959 15.6455 15.7573C15.8842 15.5186 16.2079 15.3845 16.5455 15.3845H20.3636V11.5663C20.3636 11.2288 20.4977 10.905 20.7364 10.6664C20.9751 10.4277 21.2988 10.2936 21.6364 10.2936C21.9739 10.2936 22.2976 10.4277 22.5363 10.6664C22.775 10.905 22.9091 11.2288 22.9091 11.5663V15.3845H26.7273C27.0648 15.3845 27.3885 15.5186 27.6272 15.7573C27.8659 15.9959 28 16.3197 28 16.6572Z" fill="#fff"/>
</svg>
