<svg width="27" height="28" viewBox="0 0 27 28" fill="none" xmlns="http://www.w3.org/2000/svg">
<path d="M15.9379 28H17.6646C19.2174 28 20.559 27.9006 21.441 27.6894C23.1553 27.2671 24.2236 26.0745 24.2236 24.5465C24.2236 24.236 24.1739 23.9379 24.087 23.6521C24.9441 23.0311 25.4284 22.0745 25.4284 21.0435C25.4284 20.5341 25.3292 20.0372 25.1428 19.6273C25.7141 19.0435 26.0622 18.1863 26.0622 17.2795C26.0622 16.6956 25.9131 16.0746 25.6521 15.6273C26.0123 15.118 26.2113 14.4348 26.2113 13.677C26.2113 11.8261 24.7703 10.3602 22.9192 10.3602H18.2236C17.9254 10.3602 17.7267 10.2236 17.7267 9.97519C17.7267 8.62115 19.8385 5.47829 19.8385 2.95656C19.8385 1.24226 18.6459 0 16.9938 0C15.7764 0 14.9565 0.633586 14.1491 2.17393C12.6336 5.08077 10.8447 7.65222 7.88823 11.2547H5.52795C2.45966 11.2547 0 14.7205 0 18.9565C0 23.1428 2.70808 26.6211 5.99998 26.6211H10.0994C11.7391 27.4782 13.7267 28 15.9379 28ZM17.677 26.1242L15.9503 26.0993C10.7454 26.0621 7.21739 23.118 7.21739 18.8944C7.21739 16.2112 7.81366 14.4969 9.5031 12.236C11.3789 9.73917 13.9627 6.74535 15.8261 3.03108C16.323 2.03729 16.5838 1.87579 16.9938 1.87579C17.6025 1.87579 17.9627 2.26091 17.9627 2.95656C17.9627 4.96899 15.8509 8.02487 15.8509 9.97519C15.8509 11.3789 17.0186 12.236 18.4969 12.236H22.9192C23.7392 12.236 24.3355 12.8571 24.3355 13.677C24.3355 14.2733 24.149 14.6584 23.6646 15.1304C23.5405 15.2547 23.4781 15.3789 23.4781 15.5155C23.4781 15.6149 23.5156 15.7267 23.6025 15.8261C24.0124 16.4223 24.1864 16.7951 24.1864 17.2795C24.1864 17.8758 23.9007 18.3727 23.3415 18.8074C23.1056 18.9813 22.9813 19.1802 22.9813 19.3913C22.9813 19.4658 22.9938 19.5528 23.0435 19.6397C23.4036 20.323 23.5527 20.5963 23.5527 21.0435C23.5527 21.7143 23.1304 22.2236 22.236 22.6832C22.0497 22.7826 21.9379 22.9317 21.9379 23.118C21.9379 23.1926 21.9628 23.2671 22 23.354C22.3106 24.1118 22.3478 24.236 22.3478 24.5465C22.3478 25.1553 21.9006 25.6398 20.9938 25.8633C20.2609 26.0497 19.0932 26.1366 17.677 26.1242ZM5.99998 24.7453C3.80125 24.7453 1.87579 22.0994 1.87579 18.9565C1.87579 15.7516 3.60249 13.1304 5.52795 13.1304H6.67083C5.73911 14.8696 5.34159 16.6956 5.34159 18.8572C5.34159 21.1925 6.18634 23.205 7.68942 24.7453H5.99998Z" fill="#737791"/>
</svg>
