<svg width="48" height="48" viewBox="0 0 48 48" fill="none" xmlns="http://www.w3.org/2000/svg">
<g filter="url(#filter0_d_2391_2192)">
<circle cx="24" cy="20" r="20" fill="#152B51"/>
</g>
<path fill-rule="evenodd" clip-rule="evenodd" d="M16 14C16 11.7909 17.7909 10 20 10H26V14C26 16.2091 27.7909 18 30 18H32V26C32 28.2091 30.2091 30 28 30H20C17.7909 30 16 28.2091 16 26V14ZM20 19C19.4477 19 19 19.4477 19 20C19 20.5523 19.4477 21 20 21H22C22.5523 21 23 20.5523 23 20C23 19.4477 22.5523 19 22 19H20ZM20 23C19.4477 23 19 23.4477 19 24C19 24.5523 19.4477 25 20 25H24C24.5523 25 25 24.5523 25 24C25 23.4477 24.5523 23 24 23H20ZM28.6818 12.1988L28.5509 14.1629C28.5106 14.7666 29.0115 15.2674 29.6152 15.2272L31.5792 15.0962C32.4365 15.0391 32.8274 13.9989 32.2198 13.3913L30.3867 11.5582C29.7792 10.9507 28.7389 11.3415 28.6818 12.1988Z" fill="white"/>
<defs>
<filter id="filter0_d_2391_2192" x="0" y="0" width="48" height="48" filterUnits="userSpaceOnUse" color-interpolation-filters="sRGB">
<feFlood flood-opacity="0" result="BackgroundImageFix"/>
<feColorMatrix in="SourceAlpha" type="matrix" values="0 0 0 0 0 0 0 0 0 0 0 0 0 0 0 0 0 0 127 0" result="hardAlpha"/>
<feOffset dy="4"/>
<feGaussianBlur stdDeviation="2"/>
<feComposite in2="hardAlpha" operator="out"/>
<feColorMatrix type="matrix" values="0 0 0 0 0 0 0 0 0 0 0 0 0 0 0 0 0 0 0.25 0"/>
<feBlend mode="normal" in2="BackgroundImageFix" result="effect1_dropShadow_2391_2192"/>
<feBlend mode="normal" in="SourceGraphic" in2="effect1_dropShadow_2391_2192" result="shape"/>
</filter>
</defs>
</svg>
