<svg width="512" height="512" viewBox="0 0 512 512" fill="none" xmlns="http://www.w3.org/2000/svg">
<path d="M416 266.667C433.045 266.667 447.947 280.533 448 298.667V416C448 433.045 434.304 448 416 448H298.667C290.192 447.961 282.075 444.577 276.083 438.584C270.09 432.591 266.706 424.475 266.667 416V298.667C266.667 281.621 280.405 266.667 298.667 266.667H416ZM213.333 266.667C230.379 266.667 245.28 280.533 245.333 298.667V416C245.333 433.045 231.637 448 213.333 448H96C87.5252 447.961 79.4086 444.577 73.416 438.584C67.4233 432.591 64.0393 424.475 64 416V298.667C64 281.621 77.7387 266.667 96 266.667H213.333ZM416 288H298.667C293.195 288 288 292.437 288 298.667V416C288 421.472 292.299 426.667 298.667 426.667H416C421.472 426.667 426.667 422.368 426.667 416V298.667C426.681 297.262 426.415 295.868 425.884 294.568C425.353 293.267 424.568 292.086 423.574 291.092C422.581 290.099 421.399 289.314 420.099 288.783C418.798 288.252 417.405 287.986 416 288ZM213.333 288H96C90.528 288 85.3333 292.437 85.3333 298.667V416C85.3333 421.472 89.632 426.667 96 426.667H213.333C218.805 426.667 224 422.368 224 416V298.667C224.014 297.262 223.748 295.868 223.217 294.568C222.686 293.267 221.901 292.086 220.908 291.092C219.914 290.099 218.733 289.314 217.432 288.783C216.132 288.252 214.738 287.986 213.333 288ZM416 64C433.045 64 447.947 77.8667 448 96V213.333C448 230.379 434.304 245.333 416 245.333H298.667C290.192 245.294 282.075 241.91 276.083 235.917C270.09 229.925 266.706 221.808 266.667 213.333V96C266.667 78.9547 280.405 64 298.667 64H416ZM213.333 64C230.379 64 245.28 77.8667 245.333 96V213.333C245.333 230.379 231.637 245.333 213.333 245.333H96C87.5252 245.294 79.4086 241.91 73.416 235.917C67.4233 229.925 64.0393 221.808 64 213.333V96C64 78.9547 77.7387 64 96 64H213.333ZM416 85.3333H298.667C293.195 85.3333 288 89.7707 288 96V213.333C288 218.805 292.299 224 298.667 224H416C421.472 224 426.667 219.701 426.667 213.333V96C426.681 94.5953 426.415 93.2018 425.884 91.9012C425.353 90.6006 424.568 89.4191 423.574 88.4257C422.581 87.4324 421.399 86.6472 420.099 86.1162C418.798 85.5852 417.405 85.3191 416 85.3333ZM213.333 85.3333H96C90.528 85.3333 85.3333 89.7707 85.3333 96V213.333C85.3333 218.805 89.632 224 96 224H213.333C218.805 224 224 219.701 224 213.333V96C224.014 94.5953 223.748 93.2018 223.217 91.9012C222.686 90.6006 221.901 89.4191 220.908 88.4257C219.914 87.4324 218.733 86.6472 217.432 86.1162C216.132 85.5852 214.738 85.3191 213.333 85.3333Z" fill="black"/>
</svg>
