<svg width="390" height="416" viewBox="0 0 390 416" fill="none" xmlns="http://www.w3.org/2000/svg">
<path d="M195 224C217.151 224 238.806 217.431 257.224 205.125C275.642 192.818 289.997 175.326 298.474 154.861C306.951 134.395 309.169 111.876 304.848 90.1499C300.526 68.4241 289.859 48.4676 274.196 32.8041C258.532 17.1406 238.576 6.47364 216.85 2.1521C195.124 -2.16945 172.605 0.0485274 152.139 8.52554C131.674 17.0026 114.182 31.3579 101.875 49.7762C89.5687 68.1945 83 89.8485 83 112C83 141.704 94.7999 170.192 115.804 191.196C136.808 212.2 165.296 224 195 224ZM195 32.0001C210.822 32.0001 226.29 36.692 239.446 45.4825C252.602 54.273 262.855 66.7673 268.91 81.3854C274.965 96.0035 276.55 112.089 273.463 127.607C270.376 143.126 262.757 157.38 251.569 168.569C240.38 179.757 226.126 187.376 210.607 190.463C195.089 193.55 179.003 191.965 164.385 185.91C149.767 179.855 137.273 169.602 128.482 156.446C119.692 143.29 115 127.823 115 112C115 90.7827 123.429 70.4344 138.431 55.4315C153.434 40.4286 173.783 32.0001 195 32.0001ZM387 341.12C378.189 310.484 359.684 283.53 334.261 264.298C308.837 245.067 277.864 234.595 245.987 234.453H144.227C112.358 234.63 81.4017 245.115 55.9848 264.341C30.568 283.567 12.0552 310.502 3.21332 341.12H2.99998C0.489562 349.85 0.0406489 359.044 1.68861 367.977C3.33657 376.91 7.03639 385.338 12.4966 392.598C17.9567 399.857 25.0281 405.75 33.1534 409.811C41.2788 413.872 50.2362 415.99 59.32 416H330.253C339.373 416.057 348.38 413.987 356.56 409.954C364.74 405.921 371.867 400.037 377.375 392.769C382.884 385.5 386.622 377.047 388.292 368.082C389.963 359.116 389.521 349.885 387 341.12ZM352.013 373.333C349.529 376.645 346.309 379.333 342.606 381.185C338.903 383.036 334.82 384 330.68 384H59.5333C55.4174 383.991 51.3595 383.028 47.6774 381.189C43.9953 379.35 40.789 376.683 38.3095 373.398C35.83 370.112 34.1447 366.298 33.3855 362.252C32.6263 358.207 32.8138 354.041 33.9333 350.08C40.852 326.153 55.3394 305.112 75.2239 290.112C95.1085 275.112 119.319 266.961 144.227 266.88H245.773C270.717 266.939 294.965 275.108 314.86 290.155C334.755 305.201 349.218 326.308 356.067 350.293C357.173 354.204 357.363 358.316 356.624 362.312C355.884 366.307 354.233 370.079 351.8 373.333H352.013Z" fill="black"/>
</svg>
